<svg width="22" height="22" viewBox="0 0 22 22" fill="none" xmlns="http://www.w3.org/2000/svg">
<path d="M10.9978 2.20001C14.4617 2.20001 17.3162 4.76851 17.5802 8.09051L17.5956 8.33581L17.6 8.58221L17.5989 12.5378L18.6164 14.982C18.6417 15.0414 18.6604 15.103 18.6747 15.1657L18.6923 15.2603L18.7011 15.4055C18.6999 15.6482 18.6184 15.8838 18.4694 16.0754C18.3204 16.267 18.1122 16.4039 17.8772 16.4648L17.7496 16.4945L17.6011 16.5055L13.75 16.5044L13.7445 16.6815C13.7003 17.3794 13.3919 18.0342 12.8821 18.5127C12.3723 18.9913 11.6993 19.2577 11 19.2577C10.3008 19.2577 9.62777 18.9913 9.11794 18.5127C8.6081 18.0342 8.29972 17.3794 8.25552 16.6815L8.25002 16.5044H4.39892C4.30235 16.5046 4.20619 16.492 4.11291 16.467L3.97651 16.4208C3.75447 16.3272 3.5693 16.1633 3.44946 15.9542C3.32963 15.7452 3.28176 15.5025 3.31321 15.2636L3.33631 15.1228L3.38361 14.982L4.39892 12.5411L4.40001 8.57231L4.40442 8.32481C4.53972 4.89611 7.44812 2.20001 10.9978 2.20001ZM12.65 16.5044H9.35002L9.35772 16.6595C9.39473 17.0404 9.56299 17.3966 9.83369 17.6671C10.1044 17.9376 10.4607 18.1056 10.8416 18.1423L11 18.15C11.41 18.15 11.8053 17.9974 12.1089 17.7218C12.4125 17.4463 12.6027 17.0676 12.6423 16.6595L12.65 16.5044ZM10.9978 3.30001C8.11252 3.30001 5.75082 5.41641 5.51982 8.12351L5.50442 8.35671L5.50002 8.58221V12.65L5.45821 12.8612L4.39892 15.4055L17.5527 15.4077L17.6022 15.4055L16.5418 12.8612L16.5 12.65V8.59321L16.4956 8.36881C16.3801 5.53851 13.9645 3.30001 10.9978 3.30001Z" fill="#8B919E"/>
</svg>
