<svg width="24" height="24" viewBox="0 0 24 24" fill="none" xmlns="http://www.w3.org/2000/svg">
<path d="M7.20001 7.20001C7.20001 7.04088 7.26323 6.88826 7.37575 6.77574C7.48827 6.66322 7.64088 6.60001 7.80001 6.60001H11.4C11.5591 6.60001 11.7118 6.66322 11.8243 6.77574C11.9368 6.88826 12 7.04088 12 7.20001C12 7.35914 11.9368 7.51175 11.8243 7.62427C11.7118 7.73679 11.5591 7.80001 11.4 7.80001H7.80001C7.64088 7.80001 7.48827 7.73679 7.37575 7.62427C7.26323 7.51175 7.20001 7.35914 7.20001 7.20001Z" fill="#8B919E"/>
<path d="M7.80001 9C7.64088 9 7.48827 9.06321 7.37575 9.17574C7.26323 9.28826 7.20001 9.44087 7.20001 9.6C7.20001 9.75913 7.26323 9.91174 7.37575 10.0243C7.48827 10.1368 7.64088 10.2 7.80001 10.2H10.2C10.3591 10.2 10.5118 10.1368 10.6243 10.0243C10.7368 9.91174 10.8 9.75913 10.8 9.6C10.8 9.44087 10.7368 9.28826 10.6243 9.17574C10.5118 9.06321 10.3591 9 10.2 9H7.80001Z" fill="#8B919E"/>
<path d="M9.60001 1.20001C8.35087 1.19959 7.12311 1.52416 6.03736 2.14183C4.95162 2.7595 4.04525 3.64901 3.40732 4.72297C2.76938 5.79693 2.42183 7.01838 2.39881 8.26731C2.37578 9.51624 2.67809 10.7497 3.27601 11.8464L2.42401 14.8344C2.39403 14.9393 2.39323 15.0504 2.4217 15.1558C2.45017 15.2611 2.50682 15.3567 2.58557 15.4322C2.66432 15.5078 2.76217 15.5604 2.86861 15.5845C2.97504 15.6085 3.08602 15.6031 3.18961 15.5688L5.99521 14.634C6.95144 15.1866 8.02197 15.5118 9.12398 15.5844C10.226 15.6571 11.33 15.4752 12.3504 15.053C13.3709 14.6307 14.2806 13.9793 15.0091 13.1493C15.7376 12.3192 16.2654 11.3327 16.5516 10.266C16.8378 9.19933 16.8748 8.08111 16.6597 6.99785C16.4447 5.91459 15.9833 4.89533 15.3113 4.01891C14.6392 3.14249 13.7746 2.43242 12.7843 1.94361C11.7939 1.45481 10.7044 1.20038 9.60001 1.20001ZM3.60001 8.40001C3.6002 7.06874 4.04315 5.77533 4.8591 4.72342C5.67506 3.67152 6.81768 2.92085 8.10709 2.5896C9.3965 2.25835 10.7595 2.36534 11.9814 2.89372C13.2033 3.4221 14.2148 4.34185 14.8566 5.50819C15.4985 6.67453 15.7342 8.02121 15.5267 9.33621C15.3191 10.6512 14.6802 11.8598 13.7103 12.7718C12.7405 13.6838 11.4949 14.2474 10.1697 14.3738C8.8444 14.5002 7.51474 14.1822 6.39001 13.47C6.31477 13.4223 6.22986 13.392 6.14144 13.3812C6.05302 13.3704 5.9633 13.3794 5.87881 13.4076L3.88921 14.0712L4.50121 11.934C4.52351 11.8553 4.52947 11.7729 4.51874 11.6918C4.50801 11.6107 4.48081 11.5326 4.43881 11.4624C3.88784 10.5361 3.59798 9.47782 3.60001 8.40001Z" fill="#8B919E"/>
<path d="M14.7312 17.9364L11.8488 16.4964C12.3768 16.3488 12.8844 16.152 13.3644 15.9108L15 16.7292L20.4 14.0292V13.2C20.4 12.8818 20.2736 12.5765 20.0485 12.3515C19.8235 12.1264 19.5183 12 19.2 12H17.1912C17.3748 11.616 17.5284 11.214 17.652 10.8H19.2C19.8365 10.8 20.447 11.0529 20.897 11.503C21.3471 11.953 21.6 12.5635 21.6 13.2V19.2C21.6 19.8365 21.3471 20.447 20.897 20.8971C20.447 21.3472 19.8365 21.6 19.2 21.6H10.8C10.1635 21.6 9.55302 21.3472 9.10294 20.8971C8.65285 20.447 8.39999 19.8365 8.39999 19.2V16.716C8.79239 16.7712 9.19199 16.8 9.59999 16.8V19.2C9.59999 19.5183 9.72642 19.8235 9.95147 20.0485C10.1765 20.2736 10.4817 20.4 10.8 20.4H19.2C19.5183 20.4 19.8235 20.2736 20.0485 20.0485C20.2736 19.8235 20.4 19.5183 20.4 19.2V15.3708L15.2688 17.9364C15.1854 17.9782 15.0933 18 15 18C14.9067 18 14.8146 17.9782 14.7312 17.9364Z" fill="#8B919E"/>
</svg>
