<svg width="126" height="33" viewBox="0 0 126 33" fill="none" xmlns="http://www.w3.org/2000/svg">
<path d="M39.7168 8.644C41.3301 8.644 42.7455 8.95933 43.9628 9.59C45.1948 10.2207 46.1408 11.1227 46.8008 12.296C47.4755 13.4547 47.8128 14.804 47.8128 16.344C47.8128 17.884 47.4755 19.2333 46.8008 20.392C46.1408 21.536 45.1948 22.4233 43.9628 23.054C42.7455 23.6847 41.3301 24 39.7168 24H34.3488V8.644H39.7168ZM39.6068 21.382C41.2201 21.382 42.4668 20.942 43.3468 20.062C44.2268 19.182 44.6668 17.9427 44.6668 16.344C44.6668 14.7453 44.2268 13.4987 43.3468 12.604C42.4668 11.6947 41.2201 11.24 39.6068 11.24H37.4288V21.382H39.6068ZM51.6803 10.36C51.1377 10.36 50.683 10.1913 50.3163 9.854C49.9643 9.502 49.7883 9.06933 49.7883 8.556C49.7883 8.04267 49.9643 7.61733 50.3163 7.28C50.683 6.928 51.1377 6.752 51.6803 6.752C52.223 6.752 52.6703 6.928 53.0223 7.28C53.389 7.61733 53.5723 8.04267 53.5723 8.556C53.5723 9.06933 53.389 9.502 53.0223 9.854C52.6703 10.1913 52.223 10.36 51.6803 10.36ZM53.1983 11.812V24H50.1183V11.812H53.1983ZM61.0154 11.614C61.9247 11.614 62.7241 11.7973 63.4134 12.164C64.1027 12.516 64.6454 12.978 65.0414 13.55V11.812H68.1434V24.088C68.1434 25.2173 67.9161 26.222 67.4614 27.102C67.0067 27.9967 66.3247 28.7007 65.4154 29.214C64.5061 29.742 63.4061 30.006 62.1154 30.006C60.3847 30.006 58.9621 29.6027 57.8474 28.796C56.7474 27.9893 56.1241 26.8893 55.9774 25.496H59.0354C59.1967 26.0533 59.5414 26.4933 60.0694 26.816C60.6121 27.1533 61.2647 27.322 62.0274 27.322C62.9221 27.322 63.6481 27.0507 64.2054 26.508C64.7627 25.98 65.0414 25.1733 65.0414 24.088V22.196C64.6454 22.768 64.0954 23.2447 63.3914 23.626C62.7021 24.0073 61.9101 24.198 61.0154 24.198C59.9887 24.198 59.0501 23.934 58.1994 23.406C57.3487 22.878 56.6741 22.1373 56.1754 21.184C55.6914 20.216 55.4494 19.1087 55.4494 17.862C55.4494 16.63 55.6914 15.5373 56.1754 14.584C56.6741 13.6307 57.3414 12.8973 58.1774 12.384C59.0281 11.8707 59.9741 11.614 61.0154 11.614ZM65.0414 17.906C65.0414 17.158 64.8947 16.52 64.6014 15.992C64.3081 15.4493 63.9121 15.0387 63.4134 14.76C62.9147 14.4667 62.3794 14.32 61.8074 14.32C61.2354 14.32 60.7074 14.4593 60.2234 14.738C59.7394 15.0167 59.3434 15.4273 59.0354 15.97C58.7421 16.498 58.5954 17.1287 58.5954 17.862C58.5954 18.5953 58.7421 19.2407 59.0354 19.798C59.3434 20.3407 59.7394 20.7587 60.2234 21.052C60.7221 21.3453 61.2501 21.492 61.8074 21.492C62.3794 21.492 62.9147 21.3527 63.4134 21.074C63.9121 20.7807 64.3081 20.37 64.6014 19.842C64.8947 19.2993 65.0414 18.654 65.0414 17.906ZM72.7135 10.36C72.1709 10.36 71.7162 10.1913 71.3495 9.854C70.9975 9.502 70.8215 9.06933 70.8215 8.556C70.8215 8.04267 70.9975 7.61733 71.3495 7.28C71.7162 6.928 72.1709 6.752 72.7135 6.752C73.2562 6.752 73.7035 6.928 74.0555 7.28C74.4222 7.61733 74.6055 8.04267 74.6055 8.556C74.6055 9.06933 74.4222 9.502 74.0555 9.854C73.7035 10.1913 73.2562 10.36 72.7135 10.36ZM74.2315 11.812V24H71.1515V11.812H74.2315ZM86.4706 24L83.1486 18.83L80.1346 24H76.6586L81.4986 16.256L76.5926 8.644H80.1346L83.4566 13.792L86.4486 8.644H89.9246L85.1066 16.366L90.0126 24H86.4706ZM93.9186 10.36C93.376 10.36 92.9213 10.1913 92.5546 9.854C92.2026 9.502 92.0266 9.06933 92.0266 8.556C92.0266 8.04267 92.2026 7.61733 92.5546 7.28C92.9213 6.928 93.376 6.752 93.9186 6.752C94.4613 6.752 94.9086 6.928 95.2606 7.28C95.6273 7.61733 95.8106 8.04267 95.8106 8.556C95.8106 9.06933 95.6273 9.502 95.2606 9.854C94.9086 10.1913 94.4613 10.36 93.9186 10.36ZM95.4366 11.812V24H92.3566V11.812H95.4366ZM105.234 11.636C106.686 11.636 107.859 12.098 108.754 13.022C109.648 13.9313 110.096 15.2073 110.096 16.85V24H107.016V17.268C107.016 16.3 106.774 15.5593 106.29 15.046C105.806 14.518 105.146 14.254 104.31 14.254C103.459 14.254 102.784 14.518 102.286 15.046C101.802 15.5593 101.56 16.3 101.56 17.268V24H98.4797V11.812H101.56V13.33C101.97 12.802 102.491 12.3913 103.122 12.098C103.767 11.79 104.471 11.636 105.234 11.636ZM124.355 17.642C124.355 18.082 124.325 18.478 124.267 18.83H115.357C115.43 19.71 115.738 20.3993 116.281 20.898C116.823 21.3967 117.491 21.646 118.283 21.646C119.427 21.646 120.241 21.1547 120.725 20.172H124.047C123.695 21.3453 123.02 22.3133 122.023 23.076C121.025 23.824 119.801 24.198 118.349 24.198C117.175 24.198 116.119 23.9413 115.181 23.428C114.257 22.9 113.531 22.1593 113.003 21.206C112.489 20.2527 112.233 19.1527 112.233 17.906C112.233 16.6447 112.489 15.5373 113.003 14.584C113.516 13.6307 114.235 12.8973 115.159 12.384C116.083 11.8707 117.146 11.614 118.349 11.614C119.507 11.614 120.541 11.8633 121.451 12.362C122.375 12.8607 123.086 13.572 123.585 14.496C124.098 15.4053 124.355 16.454 124.355 17.642ZM121.165 16.762C121.15 15.97 120.864 15.3393 120.307 14.87C119.749 14.386 119.067 14.144 118.261 14.144C117.498 14.144 116.853 14.3787 116.325 14.848C115.811 15.3027 115.496 15.9407 115.379 16.762H121.165Z" fill="#EE4E39"/>
<path d="M8.06072 11.518C11.203 10.0152 13.6622 7.4649 15.074 4.27704C14.1632 3.32068 12.9791 2.63757 11.704 2.2277L11.0209 2C10.9753 2.09108 10.9298 2.22771 10.9298 2.31879C9.83682 5.41557 7.60532 7.92031 4.59962 9.33207C2.50475 10.334 0.956357 12.1556 0.227704 14.3416L0 15.0247C0.0910816 15.0702 0.227706 15.1157 0.318788 15.1157C1.18406 15.4345 2.04934 15.8444 2.86907 16.3454C4.00759 14.296 5.82922 12.5655 8.06072 11.518Z" fill="#EE4E39"/>
<path d="M21.2676 11.7002C19.5825 14.2505 17.26 16.2998 14.3909 17.666C12.0683 18.759 10.2922 20.8083 9.47249 23.2675L9.24478 24.0417C10.1101 24.8159 11.1575 25.408 12.296 25.7723L12.9791 26C13.0247 25.9089 13.0702 25.7723 13.0702 25.6812C14.1632 22.5844 16.3947 20.0797 19.4004 18.6679C21.4953 17.666 23.0892 15.8444 23.7723 13.6584L24 12.9753C23.0436 12.7021 22.1328 12.2467 21.2676 11.7002Z" fill="#EE4E39"/>
<path d="M7.42318 21.6736C8.5617 18.9412 10.6566 16.7097 13.3435 15.4345C15.8027 14.2505 17.852 12.4289 19.2638 10.1974C18.2164 9.19545 17.3511 8.05693 16.7135 6.6907C15.0285 9.78748 12.3871 12.2922 9.15373 13.8406C7.28656 14.7059 5.78371 16.2087 4.87289 18.0304C5.87479 18.9867 6.69453 20.1708 7.3321 21.4915C7.3321 21.4915 7.37764 21.5826 7.42318 21.6736Z" fill="#EE4E39"/>
</svg>
