<svg width="56" height="56" viewBox="0 0 56 56" fill="none" xmlns="http://www.w3.org/2000/svg">
<path d="M29.288 18.6666C28.6692 18.6666 28.0757 18.9125 27.6381 19.35C27.2005 19.7876 26.9547 20.3811 26.9547 21C26.9547 21.6188 27.2005 22.2123 27.6381 22.6499C28.0757 23.0875 28.6692 23.3333 29.288 23.3333H38.6213C39.2402 23.3333 39.8337 23.0875 40.2713 22.6499C40.7088 22.2123 40.9547 21.6188 40.9547 21C40.9547 20.3811 40.7088 19.7876 40.2713 19.35C39.8337 18.9125 39.2402 18.6666 38.6213 18.6666H29.288Z" fill="#EE4E39" fill-opacity="0.26"/>
<path d="M29.288 39.6666C28.6692 39.6666 28.0757 39.9125 27.6381 40.35C27.2005 40.7876 26.9547 41.3811 26.9547 42C26.9547 42.6188 27.2005 43.2123 27.6381 43.6499C28.0757 44.0875 28.6692 44.3333 29.288 44.3333H38.6213C39.2402 44.3333 39.8337 44.0875 40.2713 43.6499C40.7088 43.2123 40.9547 42.6188 40.9547 42C40.9547 41.3811 40.7088 40.7876 40.2713 40.35C39.8337 39.9125 39.2402 39.6666 38.6213 39.6666H29.288Z" fill="#EE4E39" fill-opacity="0.26"/>
<path d="M29.288 11.6666C28.6692 11.6666 28.0757 11.9125 27.6381 12.35C27.2005 12.7876 26.9547 13.3811 26.9547 14C26.9547 14.6188 27.2005 15.2123 27.6381 15.6499C28.0757 16.0875 28.6692 16.3333 29.288 16.3333H47.9547C48.5735 16.3333 49.167 16.0875 49.6046 15.6499C50.0422 15.2123 50.288 14.6188 50.288 14C50.288 13.3811 50.0422 12.7876 49.6046 12.35C49.167 11.9125 48.5735 11.6666 47.9547 11.6666H29.288Z" fill="#EE4E39" fill-opacity="0.66"/>
<path d="M29.288 32.6666C28.6692 32.6666 28.0757 32.9125 27.6381 33.35C27.2005 33.7876 26.9547 34.3811 26.9547 35C26.9547 35.6188 27.2005 36.2123 27.6381 36.6499C28.0757 37.0875 28.6692 37.3333 29.288 37.3333H47.9547C48.5735 37.3333 49.167 37.0875 49.6046 36.6499C50.0422 36.2123 50.288 35.6188 50.288 35C50.288 34.3811 50.0422 33.7876 49.6046 33.35C49.167 32.9125 48.5735 32.6666 47.9547 32.6666H29.288Z" fill="#EE4E39" fill-opacity="0.66"/>
<path d="M8.04532 9.33789C7.42649 9.33789 6.83299 9.58372 6.39541 10.0213C5.95782 10.4589 5.71199 11.0524 5.71199 11.6712V23.3379C5.71199 23.9567 5.95782 24.5502 6.39541 24.9878C6.83299 25.4254 7.42649 25.6712 8.04532 25.6712H19.712C20.3308 25.6712 20.9243 25.4254 21.3619 24.9878C21.7995 24.5502 22.0453 23.9567 22.0453 23.3379V11.6712C22.0453 11.0524 21.7995 10.4589 21.3619 10.0213C20.9243 9.58372 20.3308 9.33789 19.712 9.33789H8.04532Z" fill="#EE4E39"/>
<path d="M8.04532 30.3285C7.42649 30.3285 6.83299 30.5743 6.39541 31.0119C5.95782 31.4495 5.71199 32.043 5.71199 32.6618V44.3285C5.71199 44.9473 5.95782 45.5408 6.39541 45.9784C6.83299 46.416 7.42649 46.6618 8.04532 46.6618H19.712C20.3308 46.6618 20.9243 46.416 21.3619 45.9784C21.7995 45.5408 22.0453 44.9473 22.0453 44.3285V32.6618C22.0453 32.043 21.7995 31.4495 21.3619 31.0119C20.9243 30.5743 20.3308 30.3285 19.712 30.3285H8.04532Z" fill="#EE4E39"/>
</svg>
