<svg width="48" height="48" viewBox="0 0 48 48" fill="none" xmlns="http://www.w3.org/2000/svg">
<path fill-rule="evenodd" clip-rule="evenodd" d="M42.528 4.58609C42.3422 4.40013 42.1217 4.25261 41.8789 4.15197C41.6361 4.05132 41.3758 3.99951 41.113 3.99951C40.8501 3.99951 40.5899 4.05132 40.3471 4.15197C40.1043 4.25261 39.8837 4.40013 39.698 4.58609L37.954 6.33008C36.8339 5.7956 35.5756 5.62149 34.3524 5.83174C33.1292 6.04199 32.0013 6.62625 31.124 7.50408L9.90997 28.7161L21.224 40.0301L42.44 18.8161C44.288 16.9701 44.678 14.2161 43.612 11.9881L45.358 10.2421C45.7329 9.86703 45.9435 9.35841 45.9435 8.82808C45.9435 8.29776 45.7329 7.78914 45.358 7.41408L42.528 4.58609ZM33.992 21.6061L21.224 34.3741L15.568 28.7161L28.334 15.9501L33.992 21.6081V21.6061ZM37.628 17.9701L39.608 15.9901C39.7939 15.8043 39.9414 15.5838 40.0421 15.341C40.1427 15.0982 40.1945 14.8379 40.1945 14.5751C40.1945 14.3123 40.1427 14.052 40.0421 13.8092C39.9414 13.5664 39.7939 13.3458 39.608 13.1601L36.782 10.3321C36.5962 10.1461 36.3757 9.99861 36.1329 9.89796C35.8901 9.79732 35.6298 9.74551 35.367 9.74551C35.1041 9.74551 34.8439 9.79732 34.6011 9.89796C34.3583 9.99861 34.1377 10.1461 33.952 10.3321L31.972 12.3121L37.628 17.9721V17.9701Z" fill="#EE4E39"/>
<path d="M4 45.9L8.244 30.344L19.556 41.658L4 45.9Z" fill="#EE4E39"/>
</svg>
