<svg width="61" height="61" viewBox="0 0 61 61" fill="none" xmlns="http://www.w3.org/2000/svg">
<path d="M40.3591 12.4009H9.85913V17.4842H40.3591V12.4009Z" fill="#EE4E39"/>
<path d="M40.3591 22.5675H9.85913V27.6508H40.3591V22.5675Z" fill="#EE4E39"/>
<path d="M9.85913 32.7343H30.1925V37.8176H9.85913V32.7343V32.7343Z" fill="#EE4E39"/>
<path fill-rule="evenodd" clip-rule="evenodd" d="M34.9657 32.4241C33.69 33.6954 32.9054 35.3771 32.751 37.1714C32.5965 38.9658 33.0822 40.7568 34.1219 42.2274C35.1616 43.6979 36.6883 44.7529 38.4314 45.2056C40.1746 45.6582 42.0217 45.4793 43.6455 44.7004L47.547 48.5993L51.1409 45.0054L47.2394 41.1039C48.0127 39.4808 48.1877 37.6366 47.7336 35.8969C47.2795 34.1573 46.2254 32.634 44.7575 31.5958C43.2895 30.5577 41.502 30.0715 39.7104 30.2231C37.9189 30.3746 36.2384 31.1542 34.9657 32.4241V32.4241ZM38.5622 39.6145C38.7983 39.8505 39.0786 40.0377 39.3871 40.1653C39.6956 40.293 40.0262 40.3586 40.36 40.3585C40.6939 40.3584 41.0244 40.2925 41.3328 40.1646C41.6412 40.0368 41.9214 39.8494 42.1574 39.6133C42.3934 39.3771 42.5805 39.0968 42.7082 38.7883C42.8358 38.4798 42.9014 38.1492 42.9013 37.8154C42.9012 37.4815 42.8353 37.151 42.7075 36.8426C42.5796 36.5342 42.3923 36.254 42.1561 36.0181C41.6792 35.5415 41.0325 35.2739 40.3582 35.2741C39.684 35.2744 39.0375 35.5424 38.5609 36.0193C38.0843 36.4963 37.8167 37.143 37.817 37.8172C37.8172 38.4914 38.0853 39.1379 38.5622 39.6145V39.6145Z" fill="#EE4E39"/>
</svg>
