<svg width="50" height="50" viewBox="0 0 50 50" fill="none" xmlns="http://www.w3.org/2000/svg">
<path fill-rule="evenodd" clip-rule="evenodd" d="M25 14.5834C22.2373 14.5834 19.5878 15.6808 17.6343 17.6343C15.6808 19.5878 14.5833 22.2374 14.5833 25C14.5833 27.7627 15.6808 30.4122 17.6343 32.3657C19.5878 34.3192 22.2373 35.4167 25 35.4167C27.7627 35.4167 30.4122 34.3192 32.3657 32.3657C34.3192 30.4122 35.4167 27.7627 35.4167 25C35.4167 22.2374 34.3192 19.5878 32.3657 17.6343C30.4122 15.6808 27.7627 14.5834 25 14.5834ZM18.75 25C18.75 26.6576 19.4085 28.2474 20.5806 29.4195C21.7527 30.5916 23.3424 31.25 25 31.25C26.6576 31.25 28.2473 30.5916 29.4194 29.4195C30.5915 28.2474 31.25 26.6576 31.25 25C31.25 23.3424 30.5915 21.7527 29.4194 20.5806C28.2473 19.4085 26.6576 18.75 25 18.75C23.3424 18.75 21.7527 19.4085 20.5806 20.5806C19.4085 21.7527 18.75 23.3424 18.75 25Z" fill="#EE4E39"/>
<path d="M37.5 10.4167C36.9475 10.4167 36.4176 10.6362 36.0269 11.0269C35.6362 11.4176 35.4167 11.9475 35.4167 12.5001C35.4167 13.0526 35.6362 13.5825 36.0269 13.9732C36.4176 14.3639 36.9475 14.5834 37.5 14.5834C38.0525 14.5834 38.5824 14.3639 38.9731 13.9732C39.3638 13.5825 39.5833 13.0526 39.5833 12.5001C39.5833 11.9475 39.3638 11.4176 38.9731 11.0269C38.5824 10.6362 38.0525 10.4167 37.5 10.4167Z" fill="#EE4E39"/>
<path fill-rule="evenodd" clip-rule="evenodd" d="M10.4167 2.08337C8.20653 2.08337 6.08691 2.96135 4.52411 4.52415C2.96131 6.08695 2.08333 8.20657 2.08333 10.4167V39.5834C2.08333 41.7935 2.96131 43.9131 4.52411 45.4759C6.08691 47.0387 8.20653 47.9167 10.4167 47.9167H39.5833C41.7935 47.9167 43.9131 47.0387 45.4759 45.4759C47.0387 43.9131 47.9167 41.7935 47.9167 39.5834V10.4167C47.9167 8.20657 47.0387 6.08695 45.4759 4.52415C43.9131 2.96135 41.7935 2.08337 39.5833 2.08337H10.4167ZM39.5833 6.25004H10.4167C9.3116 6.25004 8.25179 6.68903 7.47039 7.47043C6.68899 8.25183 6.25 9.31164 6.25 10.4167V39.5834C6.25 40.6884 6.68899 41.7482 7.47039 42.5297C8.25179 43.3111 9.3116 43.75 10.4167 43.75H39.5833C40.6884 43.75 41.7482 43.3111 42.5296 42.5297C43.311 41.7482 43.75 40.6884 43.75 39.5834V10.4167C43.75 9.31164 43.311 8.25183 42.5296 7.47043C41.7482 6.68903 40.6884 6.25004 39.5833 6.25004Z" fill="#EE4E39"/>
</svg>
