<svg width="60" height="60" viewBox="0 0 60 60" fill="none" xmlns="http://www.w3.org/2000/svg">
<path d="M16.9475 15.3499C18.1018 13.7554 19.8366 12.6787 21.7777 12.352C23.7188 12.0253 25.7105 12.4747 27.3231 13.6034C28.9358 14.7321 30.0401 16.4495 30.3977 18.3851C30.7554 20.3208 30.3378 22.3194 29.235 23.9499L14.895 44.4299C13.7472 46.0417 12.009 47.1347 10.059 47.4707C8.10896 47.8066 6.10518 47.3584 4.4842 46.2235C2.86322 45.0887 1.7564 43.3592 1.40488 41.4119C1.05336 39.4646 1.48562 37.4573 2.6075 35.8274L16.9475 15.3474V15.3499Z" fill="#EE4E39"/>
<path d="M38.17 15.5698C39.3111 13.9404 41.0527 12.831 43.0118 12.4857C44.9708 12.1404 46.9868 12.5875 48.6162 13.7286C50.2457 14.8697 51.3551 16.6113 51.7004 18.5704C52.0457 20.5294 51.5986 22.5454 50.4575 24.1748L36.1175 44.6523C34.9697 46.2642 33.2315 47.3572 31.2815 47.6931C29.3315 48.0291 27.3277 47.5808 25.7067 46.446C24.0857 45.3111 22.9789 43.5817 22.6274 41.6344C22.2759 39.6871 22.7081 37.6798 23.83 36.0498L38.17 15.5698Z" fill="#EE4E39"/>
<path d="M51.25 47.1499C53.2391 47.1499 55.1468 46.3597 56.5533 44.9532C57.9598 43.5467 58.75 41.639 58.75 39.6499C58.75 37.6608 57.9598 35.7531 56.5533 34.3466C55.1468 32.9401 53.2391 32.1499 51.25 32.1499C49.2609 32.1499 47.3532 32.9401 45.9467 34.3466C44.5402 35.7531 43.75 37.6608 43.75 39.6499C43.75 41.639 44.5402 43.5467 45.9467 44.9532C47.3532 46.3597 49.2609 47.1499 51.25 47.1499Z" fill="#EE4E39"/>
</svg>
